<mxfile host="Electron" modified="2023-09-01T21:37:46.724Z" agent="Mozilla/5.0 (X11; Linux x86_64) AppleWebKit/537.36 (KHTML, like Gecko) draw.io/21.6.8 Chrome/114.0.5735.289 Electron/25.5.0 Safari/537.36" etag="sBUf1Pl5U-FgGFHlVMQ3" version="21.6.8" type="device">
  <diagram name="Page-1" id="Fm0VDzHt-ju9al6D2IDV">
    <mxGraphModel dx="1114" dy="1239" grid="1" gridSize="10" guides="1" tooltips="1" connect="1" arrows="1" fold="1" page="1" pageScale="1" pageWidth="850" pageHeight="1100" math="0" shadow="0">
      <root>
        <mxCell id="0" />
        <mxCell id="1" parent="0" />
        <mxCell id="Zx3IvmGoeNjpf2_-p5FG-1" value="" style="ellipse;whiteSpace=wrap;html=1;aspect=fixed;rotation=-45;fillColor=#dae8fc;strokeColor=#6c8ebf;gradientColor=#0D35FF;" vertex="1" parent="1">
          <mxGeometry x="310" y="210" width="210" height="210" as="geometry" />
        </mxCell>
        <mxCell id="Zx3IvmGoeNjpf2_-p5FG-2" value="" style="shape=switch;whiteSpace=wrap;html=1;" vertex="1" parent="1">
          <mxGeometry x="340" y="245" width="150" height="140" as="geometry" />
        </mxCell>
        <mxCell id="Zx3IvmGoeNjpf2_-p5FG-3" value="" style="verticalLabelPosition=bottom;verticalAlign=top;html=1;shape=mxgraph.basic.partConcEllipse;startAngle=0.25;endAngle=0.1;arcWidth=0.5;fillColor=#f8cecc;strokeColor=#b85450;gradientColor=#FF0000;rotation=-60;" vertex="1" parent="1">
          <mxGeometry x="382.5" y="283.75" width="65" height="62.5" as="geometry" />
        </mxCell>
      </root>
    </mxGraphModel>
  </diagram>
</mxfile>
